<?xml version="1.0" encoding="utf-8"?>
<!-- Generator: Adobe Illustrator 19.1.0, SVG Export Plug-In . SVG Version: 6.00 Build 0)  -->
<svg version="1.1" id="Layer_1" xmlns="http://www.w3.org/2000/svg" xmlns:xlink="http://www.w3.org/1999/xlink" x="0px" y="0px"
	 viewBox="0 0 64 64" style="enable-background:new 0 0 64 64;" xml:space="preserve">
<style type="text/css">
	.st0{clip-path:url(#SVGID_2_);}
	.st1{clip-path:url(#SVGID_4_);}
	.st2{fill:#50E3C2;}
</style>
<g>
	<g>
		<g>
			<g>
				<path class="st2" d="M32.1,2C48.6,2,62,15.4,62,31.9S48.6,61.8,32.1,61.8S2.2,48.4,2.2,31.9S15.6,2,32.1,2 M32.1,0
					C14.5,0,0.2,14.3,0.2,31.9s14.3,31.9,31.9,31.9S64,49.5,64,31.9S49.7,0,32.1,0L32.1,0z"/>
			</g>
		</g>
	</g>
	<path class="st2" d="M52.1,13.5l-16.2,18v11.8c0,0.2,0,0.3-0.1,0.4l-6.9,8.5c-0.4,0.5-1.1,0.2-1.1-0.4V31L11.9,13.5
		c-0.6-0.7-0.1-1.8,0.8-1.8h38.5C52.2,11.7,52.7,12.8,52.1,13.5z"/>
</g>
</svg>
